Coordinates
version=1
nRows=24
nColumns=24
inDegrees=yes

Units are S.I. units (second, meters, Newtons, ...)
Angles are in degrees.

endheader
time	pelvis_tilt	pelvis_list	pelvis_rotation	pelvis_tx	pelvis_ty	pelvis_tz	hip_flexion_r	hip_adduction_r	hip_rotation_r	knee_angle_r	ankle_angle_r	subtalar_angle_r	mtp_angle_r	hip_flexion_l	hip_adduction_l	hip_rotation_l	knee_angle_l	ankle_angle_l	subtalar_angle_l	mtp_angle_l	lumbar_extension	lumbar_bending	lumbar_rotation
      1.26650000	      7.60443329	      4.06180113	     -3.53941549	      0.17417160	      0.91924703	      0.31330287	      6.96963555	     -9.14411091	    -10.67533126	    -71.44125847	     -1.18530123	      5.11712214	      8.67873976	      3.05479923	      8.93886352	     -0.85363567	    -18.53507938	      9.68790987	    -12.04306070	      3.46183195	    -14.31659066	     -8.91637332	      2.56067413
      1.27066667	      7.62631742	      3.85287406	     -3.40297351	      0.17937100	      0.92044903	      0.31305475	      7.56131205	     -8.85374401	    -10.75726606	    -71.05764088	     -0.59474213	      4.89920311	      8.11157957	      2.37845074	      8.74493425	     -0.65410439	    -18.00287339	      9.69614344	    -11.97513666	      3.49573094	    -14.41379554	     -8.63485386	      2.14065921
      1.27483333	      7.58678786	      3.62100868	     -3.28057855	      0.18459189	      0.92153875	      0.31283569	      8.20808067	     -8.52591536	    -10.81921351	    -70.60307804	     -0.03659588	      4.74282975	      8.06459359	      1.78704744	      8.50938863	     -0.53639188	    -17.51078696	      9.76328897	    -11.87355468	      3.50213032	    -14.37275275	     -8.33016836	      2.10719592
      1.27900000	      7.60974992	      3.37478392	     -3.13522701	      0.18976696	      0.92271134	      0.31258018	      8.75257750	     -8.18117240	    -10.90252425	    -70.05507787	      0.48878843	      4.58796618	      7.96414227	      1.12260685	      8.26280454	     -0.36810795	    -17.00204184	      9.80535971	    -11.76432259	      3.51462519	    -14.47953819	     -7.97330195	      1.94208699
      1.28316667	      7.60112352	      3.14633018	     -2.99186374	      0.19499283	      0.92380466	      0.31234394	      9.31394897	     -7.85760068	    -10.99306104	    -69.45055429	      1.02654861	      4.45267036	      7.90040390	      0.48817748	      8.02465998	     -0.24630438	    -16.47608999	      9.82318742	    -11.65100894	      3.52451766	    -14.47003427	     -7.67976129	      1.79459198
      1.28733333	      7.66841972	      2.92140676	     -2.82593342	      0.20018207	      0.92498737	      0.31205220	      9.76149301	     -7.54814162	    -11.10973830	    -68.76259707	      1.50301796	      4.33790309	      7.51580642	     -0.25203622	      7.80128322	     -0.03566024	    -15.89359223	      9.81391770	    -11.56712765	      3.57962867	    -14.61597166	     -7.37054751	      1.35706017
      1.29150000	      7.69579211	      2.66371495	     -2.65939356	      0.20536858	      0.92608598	      0.31177345	     10.23096043	     -7.19196566	    -11.22234999	    -67.99644916	      1.95484046	      4.27413058	      7.37747309	     -0.92351188	      7.52822960	      0.11983332	    -15.36703778	      9.87400613	    -11.45067834	      3.60542542	    -14.68337513	     -7.01176478	      1.24940737
      1.29566667	      7.72615880	      2.41508282	     -2.48531629	      0.21052768	      0.92714568	      0.31150426	     10.68041969	     -6.84146972	    -11.33530735	    -67.17201081	      2.42549815	      4.20141739	      7.24883029	     -1.59053607	      7.25840365	      0.26354979	    -14.84208514	      9.87966384	    -11.32666695	      3.63138765	    -14.76515367	     -6.68691909	      1.05716796
      1.29983333	      7.76248507	      2.19322285	     -2.31487460	      0.21570588	      0.92815284	      0.31120228	     11.11064059	     -6.53333057	    -11.45247055	    -66.30402246	      2.89700051	      4.15329842	      6.62253420	     -2.27792254	      7.02072279	      0.41322713	    -14.27725752	      9.84430179	    -11.26835770	      3.75954099	    -14.83782366	     -6.36289717	      0.63952640
      1.30400000	      7.81716113	      1.94590065	     -2.11568529	      0.22086125	      0.92915749	      0.31088424	     11.48506289	     -6.19790869	    -11.60605005	    -65.34690555	      3.31087114	      4.07891243	      6.50898051	     -2.96740195	      6.74442893	      0.56104977	    -13.75190277	      9.88973859	    -11.09508324	      3.79000156	    -14.94395554	     -6.01552043	      0.58483120
      1.30816667	      7.87503528	      1.71051527	     -1.92161347	      0.22601313	      0.93011520	      0.31057478	     11.84147780	     -5.87350029	    -11.74661921	    -64.33516928	      3.71698701	      4.01822338	      6.37870142	     -3.65994793	      6.47736331	      0.69140428	    -13.21707491	      9.90096461	    -10.94541317	      3.82632276	    -15.05003967	     -5.68370644	      0.37700360
      1.31233333	      7.93364929	      1.47707448	     -1.71723416	      0.23115319	      0.93102280	      0.31025046	     12.17594618	     -5.55420240	    -11.89923583	    -63.26228682	      4.10145228	      3.95657867	      6.24912581	     -4.34594036	      6.20771037	      0.82018891	    -12.69004488	      9.91217979	    -10.80352336	      3.86450047	    -15.15630488	     -5.35044275	      0.15590291
      1.31650000	      7.99683876	      1.25204880	     -1.50748922	      0.23627890	      0.93187838	      0.30991949	     12.48831281	     -5.24632198	    -12.05571747	    -62.13531746	      4.46292098	      3.88636761	      6.11546392	     -5.03144776	      5.94269059	      0.94612453	    -12.16687527	      9.92351932	    -10.65719757	      3.90606306	    -15.26983962	     -5.02516782	     -0.06941791
      1.32066667	      8.06401878	      1.04192085	     -1.29034388	      0.24139286	      0.93267808	      0.30958817	     12.77876418	     -4.95441896	    -12.21393763	    -60.95774251	      4.82998159	      3.78615781	      5.85475733	     -5.71286161	      5.68745922	      1.06205287	    -11.64940078	      9.89786875	    -10.50474899	      3.98934871	    -15.39242541	     -4.72342044	     -0.36925067
      1.32483333	      8.11071941	      0.81365583	     -1.05896551	      0.24650461	      0.93340351	      0.30923528	     13.06496901	     -4.64551046	    -12.39075859	    -59.70723483	      5.12432020	      3.72207687	      5.75329406	     -6.35157009	      5.40699477	      1.17522975	    -11.17699531	      9.94265103	    -10.36819986	      4.02530424	    -15.47499005	     -4.38989592	     -0.51388087
      1.32900000	      8.17826918	      0.62333678	     -0.83805796	      0.25162508	      0.93407081	      0.30888190	     13.32254435	     -4.38482891	    -12.55623131	    -58.43315250	      5.41216245	      3.63912759	      5.10893411	     -7.02926082	      5.16765056	      1.29615209	    -10.66155301	      9.95703663	    -10.22052513	      4.25118868	    -15.58410806	     -4.08651792	     -0.95578382
      1.33316667	      8.25609244	      0.42844016	     -0.60529670	      0.25672214	      0.93470328	      0.30853575	     13.54360489	     -4.11393350	    -12.72997815	    -57.09024863	      5.64936345	      3.46476760	      5.00137494	     -7.70272465	      4.91473384	      1.41545934	    -10.17465411	      9.99772726	    -10.03565216	      4.29367369	    -15.71794833	     -3.79450830	     -1.02578042
      1.33733333	      8.30223768	      0.23866161	     -0.36028622	      0.26181183	      0.93522879	      0.30818096	     13.78023569	     -3.85045927	    -12.91230083	    -55.69793508	      5.88686394	      3.32978495	      4.92390161	     -8.31290411	      4.65969717	      1.51074031	     -9.74006483	     10.01790304	     -9.87612177	      4.32467092	    -15.80091559	     -3.49906191	     -1.20023008
      1.34150000	      8.36801684	      0.06410228	     -0.11595346	      0.26690882	      0.93571408	      0.30781485	     13.97876517	     -3.60728990	    -13.09612882	    -54.26155076	      6.06378799	      3.14348999	      4.83661225	     -8.95560228	      4.41927771	      1.61983316	     -9.27918900	     10.06002336	     -9.69876777	      4.35967944	    -15.91092962	     -3.22377163	     -1.43322775
      1.34566667	      8.43257262	     -0.09543941	      0.13037106	      0.27200065	      0.93612674	      0.30745249	     14.16371464	     -3.38143213	    -13.28004622	    -52.78442980	      6.20902016	      2.93905443	      4.74203316	     -9.58921575	      4.19034126	      1.72960574	     -8.83087197	     10.10828972	     -9.52185698	      4.39746326	    -16.01994543	     -2.95647316	     -1.67934332
      1.34983333	      8.50396336	     -0.23043466	      0.36863482	      0.27709285	      0.93647130	      0.30709854	     14.33069743	     -3.18293997	    -13.45466481	    -51.27897353	      6.30560522	      2.69707808	      4.61054779	    -10.23780343	      3.98671815	      1.85023699	     -8.36344981	     10.18248713	     -9.32970705	      4.45019238	    -16.13763885	     -2.72725723	     -1.97158172
      1.35400000	      8.55580696	     -0.36431526	      0.62143859	      0.28218457	      0.93673148	      0.30673385	     14.49594715	     -2.98625016	    -13.64279689	    -49.72331106	      6.39427385	      2.45432385	      4.47361330	    -10.84167780	      3.77669089	      1.96580299	     -7.94210369	     10.24004977	     -9.15381647	      4.50451293	    -16.22875838	     -2.49060762	     -2.22953093
      1.35816667	      8.58188792	     -0.49137819	      0.88886200	      0.28726993	      0.93689815	      0.30634149	     14.66800651	     -2.80259227	    -13.84907966	    -48.12303227	      6.47276446	      2.22327628	      4.37016022	    -11.39023919	      3.56805054	      2.07417642	     -7.57259611	     10.28953788	     -8.99268139	      4.54474874	    -16.28539187	     -2.25615294	     -2.44331475
      1.36233333	      8.64204001	     -0.59362909	      1.13142977	      0.29237329	      0.93703641	      0.30599809	     14.79399640	     -2.63597490	    -14.02223792	    -46.49954030	      6.48376828	      1.91951725	      4.22082193	    -12.00812770	      3.38637298	      2.19857399	     -7.13881654	     10.37465171	     -8.79762320	      4.60198116	    -16.39007201	     -2.06330798	     -2.74179207
